<mxfile host="app.diagrams.net" modified="2024-01-05T03:11:13.135Z" agent="Mozilla/5.0 (Macintosh; Intel Mac OS X 10_15_7) AppleWebKit/537.36 (KHTML, like Gecko) Chrome/120.0.0.0 Safari/537.36" etag="fzCAAeklbAu1YKv2K3Te" version="22.1.16" type="github">
  <diagram name="Page-1" id="dtg6IE1y2UrWUUy6_Bkl">
    <mxGraphModel dx="1026" dy="649" grid="1" gridSize="10" guides="1" tooltips="1" connect="1" arrows="1" fold="1" page="1" pageScale="1" pageWidth="850" pageHeight="1100" math="0" shadow="0">
      <root>
        <mxCell id="0" />
        <mxCell id="1" parent="0" />
        <mxCell id="te2mjvtDiPzQYGqTujEt-1" value="" style="rounded=1;whiteSpace=wrap;html=1;" vertex="1" parent="1">
          <mxGeometry x="380" y="220" width="280" height="190" as="geometry" />
        </mxCell>
      </root>
    </mxGraphModel>
  </diagram>
</mxfile>
